<?xml version="1.0" standalone="no"?>
<!DOCTYPE svg PUBLIC "-//W3C//DTD SVG 20010904//EN"
 "http://www.w3.org/TR/2001/REC-SVG-20010904/DTD/svg10.dtd">
<svg version="1.0" xmlns="http://www.w3.org/2000/svg"
 width="2880.000000pt" height="2880.000000pt" viewBox="0 0 2880.000000 2880.000000"
 preserveAspectRatio="xMidYMid meet">
<metadata>
Created by potrace 1.11, written by Peter Selinger 2001-2013
</metadata>
<g transform="translate(0.000000,2880.000000) scale(0.100000,-0.100000)"
fill="#000000" stroke="none">
<path d="M19381 18755 c-4 -5 -7 -684 -7 -1507 1 -824 -2 -1498 -5 -1498 -4 0
-19 17 -35 38 -62 82 -213 237 -293 302 -24 19 -54 45 -67 58 -13 12 -26 22
-29 22 -3 0 -23 13 -43 29 -113 90 -388 240 -617 337 -22 9 -46 18 -52 20 -11
2 -48 14 -123 42 -8 3 -19 6 -25 7 -5 2 -41 12 -80 23 -38 12 -81 23 -95 26
-14 3 -45 10 -70 16 -73 15 -238 39 -330 47 -137 11 -543 4 -567 -10 -4 -3
-39 -8 -76 -12 -70 -7 -96 -11 -125 -19 -9 -3 -33 -7 -52 -10 -90 -14 -356
-88 -415 -116 -11 -5 -51 -21 -90 -36 -89 -35 -297 -138 -352 -176 -23 -15
-44 -28 -48 -28 -15 0 -266 -182 -359 -260 -49 -41 -259 -254 -286 -289 -14
-18 -37 -46 -52 -62 -16 -17 -28 -33 -28 -38 0 -5 -11 -19 -24 -32 -23 -24
-172 -243 -196 -289 -7 -14 -16 -27 -20 -30 -12 -9 -136 -262 -175 -355 -65
-157 -154 -430 -171 -525 -2 -8 -12 -58 -23 -110 -11 -52 -23 -108 -26 -125
-2 -16 -7 -41 -10 -55 -2 -14 -7 -46 -10 -70 -3 -25 -8 -61 -10 -80 -33 -256
-38 -745 -10 -985 3 -22 7 -60 10 -85 2 -25 7 -61 9 -80 3 -19 8 -51 11 -70
10 -71 17 -116 22 -135 2 -11 11 -49 18 -85 8 -36 16 -74 19 -85 3 -18 29
-114 41 -155 2 -8 8 -31 13 -50 5 -20 15 -47 22 -60 7 -14 13 -26 12 -27 -4
-7 12 -64 19 -69 5 -3 9 -15 9 -28 0 -12 4 -26 8 -32 5 -5 17 -31 27 -59 36
-100 134 -306 190 -399 19 -32 35 -62 35 -67 0 -5 5 -9 10 -9 6 0 10 -5 10
-10 0 -6 25 -46 55 -90 30 -44 55 -84 55 -90 0 -5 3 -10 8 -10 4 0 28 -28 52
-62 25 -34 64 -82 87 -107 23 -25 43 -49 43 -52 0 -15 264 -270 332 -321 20
-15 42 -33 50 -41 25 -24 158 -117 167 -117 5 0 11 -4 13 -8 9 -24 338 -203
468 -255 25 -10 54 -22 65 -27 40 -16 84 -32 89 -32 3 0 35 -10 71 -23 36 -13
65 -22 65 -19 0 3 8 0 18 -5 9 -5 31 -12 47 -15 17 -3 50 -10 75 -16 72 -18
161 -35 240 -45 25 -4 56 -8 70 -10 44 -7 273 -19 345 -18 99 0 390 18 390 23
0 1 16 3 35 5 19 2 35 4 35 5 0 1 11 3 25 5 46 5 104 17 165 31 61 15 102 24
120 28 6 1 16 5 23 9 6 5 12 6 12 3 0 -2 30 7 66 20 37 13 70 21 75 18 5 -3 9
0 9 5 0 6 8 11 18 11 10 0 23 5 29 11 6 6 17 12 24 13 17 4 54 19 125 51 30
14 59 25 64 25 6 0 10 4 10 8 0 7 43 33 60 37 12 2 105 60 108 67 2 4 10 8 17
8 8 0 20 6 27 13 7 6 33 25 58 41 158 102 362 295 485 456 27 36 53 66 57 68
4 2 8 9 8 15 1 11 34 57 42 57 2 0 3 -208 3 -462 l0 -463 23 1 c12 0 22 -3 22
-7 0 -5 11 -4 25 1 16 6 25 6 25 0 0 -6 9 -6 24 0 15 5 27 5 34 -2 6 -6 12 -6
16 1 5 8 13 8 27 1 12 -7 19 -7 19 -1 0 7 8 7 23 2 12 -5 31 -5 42 -1 11 4 25
3 32 -2 7 -5 14 -5 18 2 4 7 12 7 26 0 12 -7 19 -7 19 -1 0 7 8 7 24 1 13 -5
26 -7 29 -4 9 9 62 11 79 2 10 -5 19 -4 23 2 4 7 12 7 25 0 10 -6 21 -7 24 -2
5 9 53 8 62 -1 4 -3 15 -2 25 3 12 7 20 7 24 0 4 -7 12 -7 25 0 13 7 21 7 25
0 4 -7 12 -7 23 -1 10 6 23 6 34 0 10 -6 19 -5 23 1 4 7 13 7 26 0 12 -7 19
-7 19 -1 0 7 9 7 25 1 16 -6 25 -6 25 0 0 6 9 6 25 0 17 -6 25 -6 25 1 0 6 5
7 11 4 13 -9 117 -10 125 -2 3 3 17 2 30 -3 15 -6 24 -6 24 0 0 6 9 6 25 0 17
-6 25 -6 25 1 0 6 5 7 11 4 14 -9 113 -10 128 -1 6 4 11 3 11 -3 0 -7 8 -7 25
-1 15 6 26 6 30 0 4 -7 13 -6 25 0 13 7 21 7 25 0 4 -6 13 -7 23 -1 11 6 24 6
34 0 11 -6 19 -6 23 1 4 7 13 7 26 0 12 -7 19 -7 19 -1 0 7 9 7 25 1 l25 -10
0 4268 0 4268 -811 0 c-543 0 -813 -4 -818 -11z m-1451 -3463 c36 -6 77 -14
93 -17 15 -3 37 -7 50 -9 12 -3 38 -10 57 -16 19 -6 42 -13 50 -15 81 -19 367
-152 411 -191 8 -8 19 -14 23 -14 4 0 16 -8 27 -18 10 -11 31 -25 45 -32 37
-21 97 -73 201 -178 90 -91 121 -132 211 -271 38 -59 144 -262 143 -276 0 -2
8 -25 19 -50 11 -25 17 -45 13 -45 -3 0 -1 -6 5 -12 5 -7 24 -69 41 -138 37
-153 47 -212 55 -336 2 -28 5 -55 8 -60 4 -8 3 -379 -2 -379 -1 0 -4 -27 -6
-60 -4 -62 -10 -110 -13 -110 -2 0 -4 -16 -6 -35 -5 -57 -35 -199 -51 -250 -3
-8 -6 -17 -6 -20 -2 -9 -58 -165 -67 -185 -5 -11 -19 -42 -32 -70 -29 -66
-100 -189 -111 -193 -4 -2 -8 -8 -8 -14 0 -9 -113 -164 -129 -178 -4 -3 -19
-20 -34 -38 -15 -19 -27 -32 -27 -29 0 2 -31 -26 -68 -62 -74 -72 -129 -117
-179 -146 -18 -11 -33 -22 -33 -25 0 -4 -20 -17 -45 -29 -24 -12 -47 -26 -50
-32 -4 -5 -15 -9 -26 -9 -10 0 -19 -4 -19 -10 0 -5 -18 -15 -40 -21 -22 -7
-40 -16 -40 -21 0 -4 -7 -8 -16 -8 -8 0 -35 -9 -58 -20 -87 -39 -298 -92 -422
-106 -80 -9 -364 -11 -364 -2 0 3 -8 5 -17 4 -17 -3 -195 29 -240 43 -2 1 -6
1 -10 2 -5 0 -23 7 -40 14 -18 8 -33 12 -33 10 0 -2 -36 11 -80 29 -44 19 -80
31 -80 28 0 -4 -4 -2 -8 3 -4 6 -46 30 -94 55 -49 25 -88 48 -88 51 0 4 -13
12 -29 19 -16 6 -37 19 -47 29 -11 9 -33 27 -51 39 -85 60 -210 184 -305 304
-146 183 -277 450 -324 660 -2 10 -6 26 -8 36 -48 201 -59 307 -59 567 0 240
6 313 40 470 14 66 27 127 28 135 1 8 6 24 10 35 4 11 13 37 21 58 8 20 10 37
6 37 -4 0 -2 4 3 8 6 4 16 25 24 47 20 58 73 169 85 177 6 4 7 8 3 8 -5 0 1
13 12 29 12 16 21 34 21 40 0 6 5 11 10 11 6 0 10 7 10 15 0 8 5 15 10 15 6 0
10 5 10 10 0 9 53 86 92 135 77 95 202 225 218 225 5 0 10 4 10 9 0 9 174 141
186 141 3 0 19 10 36 21 40 29 204 109 222 109 8 0 18 5 21 10 4 6 11 8 16 5
5 -4 9 -2 9 3 0 5 6 9 13 10 18 1 38 7 72 21 17 7 45 13 62 14 18 1 33 5 33 8
0 4 21 10 48 14 26 5 54 10 62 11 8 2 42 6 75 9 33 4 61 8 63 10 8 7 325 -4
382 -13z"/>
<path d="M1118 18130 c-2 -8 -3 -366 -3 -796 l1 -781 -399 1 c-219 1 -403 -2
-409 -5 -9 -6 -13 -847 -4 -856 3 -3 185 -5 405 -4 308 0 401 -2 403 -12 0 -7
2 -865 3 -1907 2 -1686 6 -2059 20 -2150 2 -14 6 -47 10 -75 3 -27 7 -61 10
-75 3 -14 8 -41 11 -60 3 -19 8 -39 11 -43 2 -4 6 -20 8 -35 12 -80 65 -232
120 -344 24 -49 41 -88 38 -88 -3 0 4 -8 15 -19 12 -10 22 -21 22 -25 0 -26
178 -225 240 -269 147 -104 260 -166 370 -206 19 -7 44 -17 55 -22 29 -12 196
-58 235 -64 8 -2 31 -5 50 -9 19 -3 46 -8 60 -10 90 -17 197 -27 311 -31 53
-1 102 -5 108 -9 6 -4 11 -3 11 3 0 7 8 7 25 1 15 -6 25 -6 25 0 0 5 12 5 28
1 15 -5 37 -4 50 0 13 5 22 4 22 -1 0 -6 9 -6 25 0 15 6 26 6 30 0 4 -7 13 -6
25 0 13 7 21 7 25 0 4 -7 12 -7 25 0 13 7 21 7 25 0 4 -6 13 -7 23 -1 11 6 24
6 35 0 11 -7 17 -7 17 0 0 7 8 7 25 1 16 -6 25 -6 25 0 0 6 9 6 25 0 17 -6 25
-6 25 1 0 6 5 7 11 4 14 -9 113 -10 127 -1 6 3 13 2 17 -4 4 -7 12 -7 25 0 13
7 21 7 25 0 4 -7 12 -7 25 0 13 7 21 7 25 0 4 -7 12 -7 25 0 13 7 21 7 25 0 4
-6 13 -7 23 -1 11 6 24 6 35 0 11 -7 17 -7 17 0 0 7 8 7 25 1 16 -6 25 -6 25
0 0 5 9 6 22 1 11 -4 31 -6 42 -4 21 4 21 5 19 436 0 238 -2 437 -2 443 -1 9
-124 12 -448 13 -247 1 -466 3 -488 5 -127 13 -171 18 -178 23 -4 2 -20 6 -35
9 -15 3 -34 7 -42 11 -8 3 -17 7 -20 7 -29 5 -101 34 -122 48 -14 10 -29 18
-33 18 -13 0 -94 68 -88 74 3 3 1 6 -5 6 -7 0 -24 19 -39 43 -15 23 -30 44
-33 47 -9 7 -46 90 -58 130 -16 49 -39 164 -48 235 -7 60 -13 3869 -6 3892 3
9 195 12 819 12 448 0 817 2 821 5 3 4 6 197 6 431 1 371 -1 425 -14 426 -8 0
-379 1 -825 2 l-809 2 0 793 c0 544 -3 792 -11 793 -5 1 -240 2 -522 2 -448 2
-512 0 -515 -13z"/>
<path d="M25297 16724 c-1 -2 -47 -5 -102 -8 -55 -3 -109 -8 -120 -10 -11 -2
-51 -7 -88 -11 -37 -3 -76 -8 -86 -10 -10 -2 -36 -6 -57 -10 -22 -4 -43 -8
-49 -9 -5 -2 -32 -7 -60 -11 -57 -10 -64 -12 -67 -15 -2 -1 -11 -3 -22 -5 -42
-8 -122 -27 -136 -32 -8 -3 -19 -7 -25 -8 -29 -7 -161 -49 -170 -54 -5 -3 -16
-7 -22 -8 -24 -6 -38 -10 -63 -20 -14 -6 -50 -21 -80 -33 -30 -12 -83 -35
-118 -51 -35 -16 -68 -29 -73 -29 -5 0 -9 -5 -9 -11 0 -5 -4 -8 -9 -4 -5 3
-16 -1 -24 -9 -8 -8 -26 -18 -40 -21 -15 -4 -31 -13 -38 -21 -6 -8 -15 -12
-19 -9 -4 3 -13 -2 -20 -10 -7 -8 -16 -15 -21 -15 -9 0 -240 -138 -249 -149
-3 -4 -25 -19 -50 -35 -99 -64 -332 -262 -406 -346 -12 -14 -43 -46 -68 -72
-57 -60 -186 -215 -186 -223 0 -4 -7 -13 -16 -22 -65 -66 -344 -550 -344 -599
0 -8 -5 -14 -12 -14 -6 0 -9 -2 -6 -6 3 -3 -9 -41 -28 -85 -18 -43 -31 -79
-29 -79 2 0 -4 -20 -15 -45 -11 -25 -20 -49 -21 -53 -1 -4 -3 -11 -5 -17 -2
-5 -15 -53 -28 -105 -14 -52 -32 -121 -40 -153 -8 -32 -18 -75 -21 -95 -3 -21
-8 -49 -11 -62 -3 -14 -7 -38 -9 -55 -3 -16 -7 -46 -10 -65 -3 -19 -7 -51 -10
-70 -6 -39 -12 -101 -21 -205 -8 -86 -11 -565 -4 -565 3 0 5 -26 6 -58 1 -87
21 -261 40 -362 9 -46 24 -131 27 -150 0 -3 4 -21 9 -40 19 -76 21 -86 22
-102 0 -10 4 -18 9 -18 5 0 7 -6 4 -14 -3 -8 -3 -17 1 -21 4 -4 8 -11 8 -16 1
-5 2 -10 3 -11 2 -3 5 -15 15 -63 1 -5 4 -14 8 -20 3 -5 15 -39 27 -75 29 -91
46 -139 54 -146 4 -4 7 -17 7 -29 0 -13 7 -28 15 -35 9 -7 13 -15 10 -18 -2
-3 4 -21 14 -41 10 -20 43 -85 72 -146 30 -60 83 -156 119 -213 36 -57 72
-115 80 -129 8 -15 22 -34 30 -43 8 -9 22 -27 30 -39 8 -13 23 -33 32 -44 10
-12 21 -26 25 -32 21 -27 102 -124 128 -154 72 -81 295 -298 295 -287 0 3 13
-7 29 -22 69 -66 195 -154 397 -280 81 -51 309 -160 417 -201 161 -60 197 -72
227 -77 8 -2 23 -7 35 -13 19 -9 122 -37 175 -47 14 -2 31 -7 39 -10 8 -2 30
-7 50 -10 20 -3 52 -9 71 -14 19 -5 58 -12 85 -16 74 -10 90 -12 90 -14 0 -1
20 -3 45 -5 25 -2 70 -7 100 -10 30 -3 87 -7 125 -10 39 -2 70 -4 70 -5 0 -10
453 2 570 15 156 17 182 20 240 30 22 3 60 10 85 15 25 6 56 12 70 14 14 2 57
12 95 21 39 9 75 18 80 19 6 1 15 4 20 7 6 4 18 5 28 4 9 -2 17 0 17 4 0 7 39
19 117 36 12 3 42 14 67 25 25 10 46 17 46 13 0 -3 6 -1 13 5 7 6 33 18 58 26
25 9 68 26 95 38 27 12 51 22 54 23 3 0 12 5 20 10 8 5 21 10 29 12 8 1 18 8
22 15 5 7 9 10 9 5 0 -8 138 62 158 81 7 6 19 12 26 12 7 0 23 9 36 20 13 11
27 20 32 20 12 0 262 170 266 181 2 5 8 9 13 9 5 0 17 8 28 18 10 9 33 28 51
42 103 78 380 352 440 437 47 66 105 138 112 141 4 2 8 9 8 16 0 7 8 21 18 32
29 34 62 83 62 94 0 5 3 10 8 10 4 0 16 17 27 37 11 21 35 60 53 88 17 27 32
55 32 61 0 7 3 14 8 16 7 3 96 179 132 263 12 28 27 64 35 80 49 112 121 357
160 544 26 124 32 159 41 241 3 25 7 59 9 75 27 218 26 762 -1 900 -2 11 -6
38 -9 60 -5 39 -13 95 -21 145 -3 24 -40 195 -50 233 -2 9 -6 25 -8 35 -12 49
-36 133 -51 177 -34 103 -79 220 -87 230 -4 5 -8 15 -8 22 0 17 -116 257 -142
296 -11 15 -16 27 -13 27 4 0 -1 7 -9 16 -9 8 -16 22 -16 30 0 8 -4 14 -10 14
-5 0 -10 6 -10 14 0 7 -7 19 -15 26 -8 7 -13 16 -10 20 3 5 2 10 -2 12 -10 4
-53 65 -53 74 0 3 -13 23 -30 44 -16 21 -30 43 -30 49 0 6 -4 11 -8 11 -4 0
-20 19 -35 43 -15 23 -40 56 -55 73 -15 17 -38 46 -52 64 -33 44 -189 208
-262 276 -26 23 -155 130 -235 194 -25 20 -220 149 -255 169 -21 12 -55 31
-75 43 -60 34 -315 160 -343 169 -14 4 -63 24 -110 43 -47 20 -87 36 -90 36
-3 1 -48 14 -100 30 -99 30 -283 77 -335 85 -26 4 -116 22 -122 24 -6 2 -9 2
-43 6 -19 3 -55 7 -80 10 -169 21 -268 27 -468 29 -100 1 -184 1 -185 0z m388
-1419 c17 -4 50 -10 75 -15 200 -37 372 -104 544 -213 76 -48 203 -154 290
-241 88 -89 196 -223 196 -243 0 -6 7 -13 15 -17 8 -3 15 -12 15 -20 0 -8 6
-21 13 -28 13 -14 97 -181 101 -201 2 -7 9 -25 15 -42 14 -33 51 -141 56 -165
2 -8 4 -17 5 -20 1 -3 3 -9 4 -15 1 -5 5 -23 9 -40 4 -16 10 -40 12 -52 3 -13
7 -31 9 -40 10 -47 19 -108 33 -229 9 -85 9 -507 -1 -589 -16 -135 -14 -123
-37 -232 -5 -29 -10 -55 -10 -58 0 -2 -9 -35 -20 -72 -11 -38 -22 -75 -24 -83
-7 -31 -69 -186 -87 -218 -10 -18 -18 -39 -18 -47 0 -8 -4 -15 -8 -15 -5 0
-16 -17 -26 -37 -25 -52 -127 -204 -179 -265 -71 -86 -150 -161 -247 -238 -75
-59 -258 -170 -280 -170 -5 0 -21 -6 -37 -14 -60 -31 -191 -77 -258 -92 -11
-2 -31 -7 -45 -10 -14 -3 -34 -7 -45 -9 -11 -2 -20 -4 -20 -5 0 -3 -47 -9
-120 -17 -136 -13 -335 -8 -480 12 -83 11 -250 55 -287 76 -10 5 -23 9 -29 9
-24 0 -214 102 -301 162 -51 35 -140 110 -198 168 -107 107 -121 124 -168 195
-15 22 -29 42 -33 45 -3 3 -16 25 -30 50 -13 25 -27 46 -31 48 -5 2 -8 7 -8
12 0 4 -18 46 -39 92 -57 122 -120 317 -137 425 -3 21 -7 40 -9 43 -2 3 -7 33
-10 65 -4 33 -9 69 -12 80 -25 118 -25 615 1 795 24 161 22 152 29 170 3 8 8
31 11 50 2 19 12 60 21 90 10 30 17 56 16 57 -1 4 53 148 72 193 8 19 17 40
18 45 2 6 18 34 36 64 18 30 33 60 33 67 0 6 7 14 15 18 8 3 15 11 15 17 0 12
70 112 82 117 5 2 8 10 8 18 0 9 5 12 10 9 6 -3 10 0 10 7 0 12 142 156 219
221 116 100 345 226 486 267 22 6 47 14 55 17 20 8 25 9 120 29 109 23 215 31
375 28 99 -1 194 -5 210 -9z"/>
<path d="M7718 16655 c-2 -2 -48 -5 -103 -8 -55 -4 -111 -9 -125 -11 -14 -3
-50 -7 -80 -10 -62 -6 -113 -13 -150 -21 -14 -3 -41 -8 -60 -11 -19 -2 -43 -7
-52 -10 -9 -3 -25 -6 -35 -8 -10 -2 -45 -11 -77 -19 -33 -9 -63 -14 -68 -11
-4 3 -8 0 -8 -5 0 -6 -3 -10 -7 -9 -13 5 -290 -85 -328 -106 -11 -5 -23 -11
-27 -12 -5 -1 -10 -3 -13 -4 -3 -1 -8 -3 -12 -4 -41 -11 -379 -180 -393 -197
-3 -3 -21 -14 -40 -24 -19 -10 -57 -33 -85 -52 -27 -18 -58 -39 -68 -46 -29
-19 -141 -100 -153 -112 -7 -5 -36 -30 -65 -55 -29 -25 -75 -66 -102 -92 -27
-27 -51 -48 -53 -48 -3 0 -39 -38 -119 -125 -15 -16 -41 -47 -59 -69 -17 -21
-36 -43 -41 -50 -6 -6 -26 -31 -45 -56 -19 -25 -38 -46 -42 -48 -5 -2 -8 -8
-8 -13 0 -5 -16 -29 -35 -55 -33 -43 -89 -131 -144 -227 -13 -23 -28 -45 -33
-48 -5 -3 -8 -8 -6 -11 4 -5 -64 -140 -74 -148 -4 -3 -9 -15 -11 -25 -2 -11
-15 -42 -28 -70 -13 -27 -24 -52 -24 -55 -1 -3 -7 -18 -14 -35 -54 -134 -116
-331 -136 -430 -2 -11 -9 -38 -14 -60 -5 -22 -12 -51 -14 -65 -14 -73 -27
-148 -31 -175 -2 -16 -7 -48 -10 -70 -7 -45 -13 -102 -23 -225 -9 -116 -9
-522 1 -645 13 -158 14 -170 16 -170 1 0 4 -20 5 -45 2 -25 4 -45 5 -45 1 0 3
-12 5 -27 2 -14 10 -64 19 -110 9 -45 17 -92 19 -103 2 -11 7 -33 11 -50 4
-16 12 -50 18 -75 12 -51 15 -62 64 -225 20 -66 40 -124 45 -130 5 -5 9 -15 9
-22 0 -8 7 -30 16 -51 10 -20 18 -41 19 -47 1 -9 37 -87 96 -212 12 -24 25
-45 30 -49 5 -3 9 -14 9 -24 0 -10 3 -20 8 -22 4 -1 18 -23 32 -48 13 -25 28
-49 32 -55 5 -5 32 -46 60 -89 92 -144 233 -319 364 -450 83 -83 230 -216 239
-216 3 0 16 -9 28 -21 35 -33 204 -150 300 -208 108 -64 208 -114 402 -202 41
-18 80 -33 90 -34 6 0 15 -3 20 -6 9 -6 80 -31 95 -34 3 -1 44 -14 92 -29 89
-28 118 -35 153 -41 11 -2 20 -4 20 -5 0 -1 7 -3 15 -5 15 -3 122 -26 150 -32
18 -4 85 -14 200 -29 160 -22 421 -32 586 -24 33 2 66 0 72 -4 7 -4 12 -3 12
1 0 5 28 10 63 11 34 2 78 5 97 8 48 6 97 12 150 18 39 4 132 22 220 41 14 2
41 8 60 11 19 4 39 9 45 12 5 3 16 7 25 8 30 4 74 15 82 20 5 3 20 8 34 10 15
3 32 6 38 7 6 1 13 4 16 7 3 3 32 14 65 23 33 10 75 25 93 33 18 9 40 17 50
19 33 7 227 97 234 109 4 6 8 8 8 3 0 -7 35 11 190 95 124 68 363 237 469 332
106 95 223 212 294 296 45 52 86 98 92 102 5 4 7 8 3 8 -4 0 3 11 15 24 12 13
40 50 62 82 22 33 43 60 48 62 4 2 7 10 7 18 0 8 5 14 10 14 6 0 10 5 10 10 0
6 5 16 10 23 23 28 59 87 52 87 -4 0 -2 4 4 8 21 15 149 259 203 387 55 132
162 451 159 474 0 3 1 8 2 11 4 10 12 48 25 115 5 22 9 45 11 50 1 6 6 28 9
50 9 52 13 70 15 70 1 0 3 23 5 50 3 28 7 66 10 85 30 204 35 642 9 875 -4 39
-8 87 -8 107 -1 21 -4 38 -7 38 -4 0 -6 12 -7 28 0 15 -1 29 -2 32 -2 8 -7 35
-14 77 -3 21 -8 49 -11 63 -3 14 -8 39 -10 55 -3 17 -8 37 -10 45 -2 8 -6 26
-9 40 -10 63 -103 358 -134 430 -9 19 -16 38 -16 42 -1 3 -4 10 -8 14 -5 4 -8
16 -8 26 0 10 -4 18 -10 18 -5 0 -10 7 -10 15 0 16 -73 170 -91 191 -6 8 -8
14 -4 14 5 0 1 8 -7 18 -13 15 -50 77 -90 152 -21 40 -72 115 -80 118 -5 2 -8
9 -8 16 0 7 -9 21 -20 31 -11 10 -20 22 -20 26 0 5 -7 17 -15 26 -8 10 -42 54
-77 98 -139 175 -276 311 -483 478 -98 79 -324 220 -460 288 -49 24 -91 47
-93 52 -2 4 -9 7 -16 7 -7 0 -40 14 -74 30 -34 17 -68 30 -75 30 -7 0 -18 5
-24 11 -6 6 -17 12 -24 13 -8 1 -31 10 -52 19 -21 9 -41 16 -45 15 -4 -1 -24
6 -46 15 -21 9 -44 17 -51 17 -7 0 -29 7 -49 15 -20 8 -36 13 -36 10 0 -3 -8
-1 -18 4 -11 6 -31 12 -45 15 -15 2 -64 14 -110 26 -47 11 -97 22 -113 25 -16
2 -47 7 -69 11 -22 4 -49 8 -60 10 -11 1 -20 3 -20 4 0 1 -18 3 -40 5 -22 2
-65 7 -95 10 -30 4 -75 9 -100 11 -47 5 -458 13 -462 9z m327 -915 c0 -1 27
-3 60 -6 33 -2 74 -6 90 -9 17 -3 46 -8 65 -11 19 -3 53 -10 75 -16 22 -5 48
-12 58 -14 113 -21 355 -111 477 -176 41 -23 93 -50 115 -62 22 -11 49 -29 59
-38 11 -10 24 -18 29 -18 5 0 23 -11 41 -25 17 -14 42 -33 55 -42 70 -53 238
-204 240 -217 1 -5 11 -19 24 -31 55 -56 77 -82 77 -93 0 -7 4 -12 8 -12 21 0
167 -233 240 -380 42 -87 107 -246 116 -285 2 -5 9 -30 16 -55 21 -69 20 -65
48 -195 11 -49 23 -115 27 -145 4 -30 9 -64 11 -75 5 -23 13 -113 20 -225 6
-99 6 -303 -1 -410 -3 -47 -7 -106 -8 -132 -1 -27 -4 -48 -7 -48 -3 0 -5 -12
-6 -27 -1 -30 -10 -97 -18 -135 -3 -12 -8 -34 -10 -48 -2 -14 -14 -68 -27
-120 -13 -52 -23 -98 -23 -102 -1 -3 -4 -10 -8 -14 -5 -4 -8 -18 -8 -31 0 -13
-4 -23 -8 -23 -5 0 -9 -6 -10 -12 -2 -27 -7 -42 -60 -168 -40 -96 -101 -211
-116 -222 -6 -4 -7 -8 -3 -8 4 0 -6 -20 -23 -44 -16 -25 -30 -47 -30 -50 0 -5
-55 -85 -82 -121 -5 -5 -22 -28 -39 -50 -79 -104 -233 -262 -328 -335 -209
-162 -423 -271 -706 -360 -38 -12 -79 -24 -90 -26 -11 -1 -49 -10 -85 -18 -36
-8 -81 -17 -100 -19 -101 -15 -131 -19 -195 -22 -38 -2 -70 -5 -70 -5 0 -2
-199 -2 -205 0 -3 1 -30 3 -60 5 -75 5 -225 21 -225 25 0 1 -9 3 -20 5 -60 8
-221 48 -255 62 -8 3 -26 8 -39 10 -13 2 -34 11 -47 20 -13 8 -24 13 -24 9 0
-3 -34 10 -75 29 -41 18 -75 32 -75 29 0 -2 -18 7 -40 21 -22 14 -42 25 -46
25 -14 0 -174 102 -174 111 0 6 -4 8 -9 5 -5 -4 -11 -3 -13 1 -1 5 -30 28 -63
53 -140 104 -338 328 -451 510 -60 95 -123 218 -116 224 3 3 0 6 -6 6 -7 0
-11 3 -10 8 1 4 -6 25 -16 47 -10 22 -19 45 -20 50 -2 6 -9 24 -15 40 -10 24
-39 110 -46 135 -1 3 -6 23 -13 44 -6 22 -9 43 -7 47 3 4 1 9 -4 11 -5 1 -12
19 -14 38 -3 19 -6 35 -7 35 -2 0 -6 20 -14 65 -4 19 -9 46 -11 60 -12 58 -15
75 -21 129 -3 31 -8 70 -10 86 -23 173 -23 604 1 810 5 48 16 119 20 135 2 8
6 33 10 55 3 22 7 47 10 55 2 8 7 27 10 43 3 15 7 39 10 55 9 44 55 195 70
227 7 17 17 44 21 60 4 17 13 39 20 50 8 12 15 30 17 40 2 11 9 31 17 45 7 14
27 52 44 85 16 33 33 62 38 63 4 2 6 7 3 12 -3 4 2 13 10 20 8 7 15 19 15 26
0 8 5 14 10 14 6 0 10 5 10 11 0 12 81 132 93 137 4 2 7 9 7 16 0 6 9 18 20
26 11 8 20 19 20 25 0 6 9 17 20 25 11 8 20 18 20 23 0 13 206 217 219 217 6
0 11 4 11 8 0 5 33 32 73 60 39 28 77 55 82 60 6 4 30 19 55 32 25 14 47 27
50 30 3 3 46 25 95 49 50 24 102 50 118 58 15 8 27 12 27 8 0 -3 11 2 25 11
14 9 25 13 25 9 0 -4 6 -2 13 4 8 6 17 8 20 4 4 -3 7 -1 7 5 0 7 3 11 8 10 4
0 14 1 22 4 47 17 136 41 143 40 4 -1 16 2 25 7 16 9 56 18 112 25 14 2 39 6
55 10 75 13 101 17 167 21 39 2 72 6 74 8 4 3 319 1 319 -3z"/>
<path d="M12670 11592 c-49 -6 -136 -33 -189 -58 -185 -86 -346 -279 -386
-463 -3 -11 -8 -31 -11 -43 -8 -30 -12 -250 -5 -263 3 -5 6 -14 7 -20 2 -10 8
-36 20 -92 3 -18 10 -33 15 -33 5 0 8 -3 7 -7 -3 -11 43 -105 59 -121 7 -7 13
-18 13 -23 0 -20 156 -162 219 -199 66 -39 150 -73 213 -85 111 -22 316 -9
376 23 12 7 22 10 22 7 0 -8 110 52 131 71 8 8 18 14 22 14 4 0 33 26 65 58
161 158 227 314 225 527 -1 116 -6 152 -30 225 -16 49 -62 148 -78 167 -5 7
-16 19 -22 27 -7 8 -13 18 -13 21 0 11 -127 132 -170 161 -68 47 -159 86 -235
101 -29 5 -225 10 -255 5z"/>
</g>
</svg>
